<svg xmlns="http://www.w3.org/2000/svg" width="960" height="430" viewBox="0 0 960 430" font-family="Noto Sans CJK KR, sans-serif">
<style>.base{fill:none;stroke:#8d9aa2;stroke-width:1.5;stroke-dasharray:6 4} .new{fill:#28747a33;stroke:#185c56;stroke-width:2.2} .nose{fill:#bb591f40;stroke:#bb591f;stroke-width:2} .axis{stroke:#20313d;stroke-width:1;stroke-dasharray:2 3} text{fill:#20313d}</style>
<rect width="960" height="430" fill="#f8fafb"/>
<text x="24" y="34" font-size="20" text-anchor="start" font-weight="700">시안 4 · 앵글 헤드형 (협소 공간)</text><text x="24" y="58" font-size="13" text-anchor="start" font-weight="400">체결축을 플랜지에 대해 90° 꺾음: Ø50 팔 + 높이 50 헤드, 노즈가 옆으로 나감</text>
<line class="axis" x1="30" y1="180" x2="560" y2="180"/>
<polygon class="base" points="40.0,256.7 250.6,256.7 250.6,103.3 40.0,103.3"/><polygon class="base" points="250.6,217.7 281.8,217.7 281.8,142.3 250.6,142.3"/><polygon class="new" points="40.0,245.0 222.0,245.0 222.0,115.0 40.0,115.0"/><polygon class="new" points="222.0,245.0 310.4,245.0 310.4,115.0 222.0,115.0"/><polygon class="nose" points="228.5,276.2 303.9,276.2 303.9,245.0 228.5,245.0"/><text x="320.4" y="265.8" font-size="12" text-anchor="start" font-weight="400">↓ 체결 방향</text>
<text x="40" y="316" font-size="12" text-anchor="start" font-weight="400">옆면 (왼쪽 = 로봇 플랜지, 오른쪽 = 체결 방향)</text>
<line class="axis" x1="620" y1="180" x2="820" y2="180"/><line class="axis" x1="720" y1="80" x2="720" y2="280"/>
<rect class="base" x="640.7" y="103.3" width="158.6" height="153.4" rx="23.400000000000002"/><circle class="new" cx="720" cy="180.0" r="65.0"/><circle class="nose" cx="720" cy="260.6" r="37.7"/>
<text x="720" y="316" font-size="12" text-anchor="middle" font-weight="400">정면 (축 방향)</text>
<text x="24" y="360" font-size="13" text-anchor="start" font-weight="400">외형: 팔 Ø50 × 70 + 헤드 34 × 50, 작업면에서 몸체 끝까지 높이 62 · 대시보드 아래·틈새처럼 위가 막힌 곳에 진입</text><text x="24" y="380" font-size="13" text-anchor="start" font-weight="400">공정: 그대로 14단계 · 로봇 경로가 크게 바뀜(공구 방향 90°)</text><text x="24" y="400" font-size="13" text-anchor="start" font-weight="400">위험: 베벨 기어·구동축 전달 추가로 부품 수·무게 증가, 가장 큰 재설계</text>
<text x="936" y="422" font-size="11" text-anchor="end" font-weight="400">점선 = 현재 R09 외형 · 치수 mm · 개략 시안</text>
</svg>